<svg xmlns="http://www.w3.org/2000/svg" width="17" height="16" viewBox="0 0 17 16" fill="none">
    <path d="M11.4681 0.64566H6.25026C4.40866 0.64566 3.99282 1.56648 3.76509 2.70511L2.92349 6.71504H14.8048L13.9632 2.70511C13.7157 1.56648 13.3098 0.64566 11.4681 0.64566Z" stroke="black" stroke-width="0.99011" stroke-linecap="round" stroke-linejoin="round"/>
    <path d="M16.2701 13.2597C16.3493 14.131 15.6562 14.8835 14.7651 14.8835H13.369C12.567 14.8835 12.4581 14.537 12.3096 14.1211L12.1611 13.6756C11.9532 13.0716 11.8146 12.6558 10.7452 12.6558H6.94321C5.8739 12.6558 5.71547 13.1212 5.52735 13.6756L5.37884 14.1211C5.24022 14.5469 5.1313 14.8835 4.31941 14.8835H2.92335C2.03225 14.8835 1.32929 14.131 1.4184 13.2597L1.83424 8.73491C1.94315 7.61609 2.15107 6.7052 4.10159 6.7052H13.577C15.5275 6.7052 15.7354 7.61609 15.8443 8.73491L16.2701 13.2597Z" stroke="black" stroke-width="0.99011" stroke-linecap="round" stroke-linejoin="round"/>
    <path d="M2.91333 4.48718H2.17075" stroke="black" stroke-width="0.99011" stroke-linecap="round" stroke-linejoin="round"/>
    <path d="M15.5373 4.48718H14.7947" stroke="black" stroke-width="0.99011" stroke-linecap="round" stroke-linejoin="round"/>
    <path d="M4.39859 9.68527H6.62634" stroke="black" stroke-width="0.99011" stroke-linecap="round" stroke-linejoin="round"/>
    <path d="M11.0818 9.68527H13.3095" stroke="black" stroke-width="0.99011" stroke-linecap="round" stroke-linejoin="round"/>
</svg>