<svg width="21" height="21" viewBox="0 0 21 21" fill="none" xmlns="http://www.w3.org/2000/svg">
<path d="M9.23622 1.91901H7.56955C3.40288 1.91901 1.73622 3.58567 1.73622 7.75234V12.7523C1.73622 16.919 3.40288 18.5857 7.56955 18.5857H12.5696C16.7362 18.5857 18.4029 16.919 18.4029 12.7523V11.0857" stroke="#292D32" stroke-width="1.25" stroke-linecap="round" stroke-linejoin="round"/>
<path d="M13.4362 2.76901L6.86955 9.33568C6.61955 9.58568 6.36955 10.0773 6.31955 10.4357L5.96122 12.944C5.82789 13.8523 6.46955 14.4857 7.37789 14.3607L9.88622 14.0023C10.2362 13.9523 10.7279 13.7023 10.9862 13.4523L17.5529 6.88568C18.6862 5.75235 19.2196 4.43568 17.5529 2.76901C15.8862 1.10235 14.5696 1.63568 13.4362 2.76901Z" stroke="#292D32" stroke-width="1.25" stroke-miterlimit="10" stroke-linecap="round" stroke-linejoin="round"/>
<path d="M12.4946 3.71069C13.0529 5.70236 14.6112 7.26069 16.6112 7.82736" stroke="#292D32" stroke-width="1.25" stroke-miterlimit="10" stroke-linecap="round" stroke-linejoin="round"/>
</svg>
