<svg xmlns="http://www.w3.org/2000/svg" width="18" height="17" viewBox="0 0 18 17" fill="none">
    <path d="M16.3033 4.60417H12.0533" stroke="black" stroke-miterlimit="10" stroke-linecap="round" stroke-linejoin="round"/>
    <path d="M4.96999 4.60417H2.13666" stroke="black" stroke-miterlimit="10" stroke-linecap="round" stroke-linejoin="round"/>
    <path d="M7.80332 7.08333C9.17253 7.08333 10.2825 5.97337 10.2825 4.60417C10.2825 3.23496 9.17253 2.125 7.80332 2.125C6.43412 2.125 5.32416 3.23496 5.32416 4.60417C5.32416 5.97337 6.43412 7.08333 7.80332 7.08333Z" stroke="black" stroke-miterlimit="10" stroke-linecap="round" stroke-linejoin="round"/>
    <path d="M16.3033 12.3958H13.47" stroke="black" stroke-miterlimit="10" stroke-linecap="round" stroke-linejoin="round"/>
    <path d="M6.38666 12.3958H2.13666" stroke="black" stroke-miterlimit="10" stroke-linecap="round" stroke-linejoin="round"/>
    <path d="M10.6366 14.875C12.0058 14.875 13.1158 13.765 13.1158 12.3958C13.1158 11.0266 12.0058 9.91667 10.6366 9.91667C9.26743 9.91667 8.15747 11.0266 8.15747 12.3958C8.15747 13.765 9.26743 14.875 10.6366 14.875Z" stroke="black" stroke-miterlimit="10" stroke-linecap="round" stroke-linejoin="round"/>
</svg>