<svg width="13" height="13" viewBox="0 0 13 13" fill="none" xmlns="http://www.w3.org/2000/svg">
<path fill-rule="evenodd" clip-rule="evenodd" d="M7.6015 1.52722C7.6015 0.974937 7.29616 0.527222 6.9195 0.527222C6.54284 0.527222 6.2375 0.974937 6.2375 1.52722V5.84722H1.9195C1.36721 5.84722 0.919498 6.15167 0.919498 6.52722C0.919498 6.90278 1.36721 7.20722 1.9195 7.20722H6.2375V11.5272C6.2375 12.0795 6.54284 12.5272 6.9195 12.5272C7.29616 12.5272 7.6015 12.0795 7.6015 11.5272V7.20722H11.9195C12.4718 7.20722 12.9195 6.90278 12.9195 6.52722C12.9195 6.15167 12.4718 5.84722 11.9195 5.84722H7.6015V1.52722Z" fill="black"/>
</svg>
