<svg xmlns="http://www.w3.org/2000/svg" width="24" height="25" viewBox="0 0 24 25" fill="none">
    <path d="M13.47 8.02995C13.6106 8.1704 13.8012 8.24929 14 8.24929C14.1987 8.24929 14.3893 8.1704 14.53 8.02995L15.25 7.30995V17.5C15.25 17.6989 15.329 17.8896 15.4696 18.0303C15.6103 18.1709 15.8011 18.25 16 18.25C16.1989 18.25 16.3896 18.1709 16.5303 18.0303C16.671 17.8896 16.75 17.6989 16.75 17.5V7.30995L17.47 8.02995C17.5386 8.10364 17.6214 8.16274 17.7134 8.20373C17.8054 8.24472 17.9047 8.26677 18.0054 8.26854C18.1062 8.27032 18.2062 8.25179 18.2996 8.21407C18.393 8.17635 18.4778 8.12021 18.549 8.04899C18.6202 7.97777 18.6764 7.89294 18.7141 7.79955C18.7518 7.70616 18.7703 7.60613 18.7686 7.50543C18.7668 7.40473 18.7447 7.30541 18.7038 7.21341C18.6628 7.12141 18.6037 7.03861 18.53 6.96995L16.53 4.96995C16.3893 4.8295 16.1987 4.75061 16 4.75061C15.8012 4.75061 15.6106 4.8295 15.47 4.96995L13.47 6.96995C13.3295 7.11058 13.2506 7.3012 13.2506 7.49995C13.2506 7.6987 13.3295 7.88933 13.47 8.02995ZM8.74997 17.69L9.46997 16.9699C9.53863 16.8963 9.62143 16.8372 9.71343 16.7962C9.80543 16.7552 9.90475 16.7331 10.0054 16.7314C10.1062 16.7296 10.2062 16.7481 10.2996 16.7858C10.393 16.8235 10.4778 16.8797 10.549 16.9509C10.6202 17.0221 10.6764 17.107 10.7141 17.2004C10.7518 17.2937 10.7703 17.3938 10.7686 17.4945C10.7668 17.5952 10.7447 17.6945 10.7038 17.7865C10.6628 17.8785 10.6037 17.9613 10.53 18.03L8.52997 20.03C8.38934 20.1704 8.19872 20.2493 7.99997 20.2493C7.80122 20.2493 7.6106 20.1704 7.46997 20.03L5.46997 18.03C5.39628 17.9613 5.33718 17.8785 5.29619 17.7865C5.2552 17.6945 5.23316 17.5952 5.23138 17.4945C5.2296 17.3938 5.24813 17.2937 5.28585 17.2004C5.32357 17.107 5.37971 17.0221 5.45093 16.9509C5.52215 16.8797 5.60698 16.8235 5.70037 16.7858C5.79376 16.7481 5.89379 16.7296 5.99449 16.7314C6.0952 16.7331 6.19451 16.7552 6.28651 16.7962C6.37851 16.8372 6.46131 16.8963 6.52997 16.9699L7.24997 17.69V7.49995C7.24997 7.30104 7.32899 7.11027 7.46964 6.96962C7.61029 6.82897 7.80106 6.74995 7.99997 6.74995C8.19888 6.74995 8.38965 6.82897 8.5303 6.96962C8.67095 7.11027 8.74997 7.30104 8.74997 7.49995V17.69Z" fill="black"/>
</svg>