<svg width="16" height="17" viewBox="0 0 16 17" fill="none" xmlns="http://www.w3.org/2000/svg">
<path fill-rule="evenodd" clip-rule="evenodd" d="M6.25067 2.10514C6.51425 1.55163 7.07267 1.19905 7.68573 1.19905H8.20463C8.78533 1.19905 9.31982 1.51573 9.59874 2.02507L10.0894 2.92099H5.86217L6.25067 2.10514ZM5.0125 3.98063C5.01931 3.98076 5.02611 3.98076 5.0329 3.98063H10.9752C10.9811 3.98073 10.987 3.98073 10.9929 3.98063H12.865L12.0696 13.8439C12.003 14.6695 11.3136 15.3056 10.4853 15.3056H5.20145C4.36965 15.3056 3.67853 14.6642 3.61643 13.8348L2.87869 3.98063H5.0125ZM4.68852 2.92099L5.29396 1.64957C5.73326 0.727042 6.66395 0.139404 7.68573 0.139404H8.20463C9.17247 0.139404 10.0633 0.667215 10.5281 1.51611L11.2975 2.92099H14.8247C15.1174 2.92099 15.3546 3.1582 15.3546 3.45081C15.3546 3.74342 15.1174 3.98063 14.8247 3.98063H13.9281L13.1258 13.929C13.0149 15.3051 11.8658 16.3652 10.4853 16.3652H5.20145C3.81512 16.3652 2.66324 15.2963 2.55974 13.9139L1.81608 3.98063H1.31431C1.02169 3.98063 0.784485 3.74342 0.784485 3.45081C0.784485 3.1582 1.02169 2.92099 1.31431 2.92099H2.30316H2.31339H4.68852ZM6.61231 7.40843C6.60345 7.11595 6.35917 6.88603 6.06669 6.8949C5.77421 6.90376 5.5443 7.14804 5.55316 7.44052L5.68561 11.8115C5.69448 12.104 5.93876 12.3339 6.23124 12.3251C6.52372 12.3162 6.75363 12.0719 6.74477 11.7795L6.61231 7.40843ZM9.92388 6.62969C10.2165 6.62969 10.4537 6.8669 10.4537 7.15951V11.7954C10.4537 12.0881 10.2165 12.3253 9.92388 12.3253C9.63127 12.3253 9.39406 12.0881 9.39406 11.7954V7.15951C9.39406 6.8669 9.63127 6.62969 9.92388 6.62969Z" fill="#292D32"/>
</svg>
