<svg xmlns="http://www.w3.org/2000/svg" width="25" height="25" viewBox="0 0 25 25" fill="none">
    <path d="M12.4775 15.7782V7.12823L10.1475 9.45823L9.43954 8.73923L12.9775 5.20123L16.5155 8.73923L15.8085 9.45923L13.4775 7.12823V15.7782H12.4775ZM7.59254 19.2012C7.13254 19.2012 6.74854 19.0472 6.44054 18.7392C6.13187 18.4306 5.97754 18.0462 5.97754 17.5862V15.1632H6.97754V17.5862C6.97754 17.7396 7.04154 17.8806 7.16954 18.0092C7.29821 18.1372 7.43921 18.2012 7.59254 18.2012H18.3625C18.5159 18.2012 18.6569 18.1372 18.7855 18.0092C18.9135 17.8806 18.9775 17.7396 18.9775 17.5862V15.1632H19.9775V17.5862C19.9775 18.0462 19.8235 18.4302 19.5155 18.7382C19.2069 19.0469 18.8225 19.2012 18.3625 19.2012H7.59254Z" fill="black"/>
</svg>